:FULLY-SPECIFIED
:FORCE-ALL-JOINTS-BE-3DOF
:DEGREES
747
root 3.9999 17.2669 14.3608 -163.954 -5.66984 188.931
lfemur -32.6471 2.99335 -14.4078
ltibia 39.6017 0 0
lfoot -13.534 0.0506803 0
ltoes 15.3888 0 0
rfemur -25.2279 -30.7446 8.2507
rtibia 105.269 0 0
rfoot 22.8495 -0.36172 0
rtoes 27.9142 0 0
lowerback 2.17557 6.30223 -1.56147
upperback -1.50867 8.31285 -2.61321
thorax -2.56341 4.16929 -2.14215
lowerneck -6.56116 -8.38423 -1.72301
upperneck -1.66607 -11.0872 4.93415
head 0.979831 -5.46099 1.48978
lclavicle 5.82716e-15 -3.00319e-14 0
lhumerus -51.697 -14.5035 70.0144
lradius 55.4907 0 0
lwrist 16.1644 0 0
lhand -26.0621 -6.32916 0
lfingers 7.12502 0 0
lthumb 0.485719 23.6184 0
rclavicle 5.82716e-15 -3.00319e-14 0
rhumerus 9.19862 33.5744 -73.4978
rradius 88.7372 0 0
rwrist -0.448188 0 0
rhand -23.1561 -23.8626 0
rfingers 7.12502 0 0
rthumb 3.29117 -773.733 0
748
root 3.92463 17.0561 14.6371 -163.921 -1.97745 188.881
lfemur -34.2175 5.51564 -15.9603
ltibia 42.8001 0 0
lfoot -16.5897 1.93637 0
ltoes 14.8906 0 0
rfemur -25.032 -30.9766 10.3866
rtibia 102.515 0 0
rfoot 21.5464 -1.4161 0
rtoes 27.6258 0 0
lowerback 2.44361 6.17287 -1.96186
upperback -1.34386 8.12979 -2.77801
thorax -2.57962 4.08737 -2.1094
lowerneck -6.36031 -8.49199 -1.77083
upperneck -1.65855 -11.2151 5.17126
head 0.97127 -5.51402 1.57457
lclavicle 3.36971e-16 -2.69107e-14 0
lhumerus -51.4389 -13.9645 73.1081
lradius 56.3731 0 0
lwrist 15.5867 0 0
lhand -26.6016 -6.61341 0
lfingers 7.12502 0 0
lthumb -0.0353788 23.3359 0
rclavicle 3.36971e-16 -2.69107e-14 0
rhumerus 6.00441 36.6686 -77.4729
rradius 88.4564 0 0
rwrist 0.545039 0 0
rhand -22.2833 -22.9178 0
rfingers 7.12502 0 0
rthumb 4.13394 -772.777 0
749
root 3.85143 16.8512 14.9059 -163.889 1.61348 188.832
lfemur -35.7447 7.96862 -17.4702
ltibia 45.9105 0 0
lfoot -19.5613 3.77023 0
ltoes 14.406 0 0
rfemur -24.8415 -31.2022 12.4637
rtibia 99.8371 0 0
rfoot 20.2791 -2.44151 0
rtoes 27.3453 0 0
lowerback 2.70429 6.04707 -2.35125
upperback -1.18358 7.95176 -2.93828
thorax -2.59538 4.00771 -2.07756
lowerneck -6.16499 -8.59678 -1.81733
upperneck -1.65123 -11.3395 5.40187
head 0.962945 -5.56559 1.65703
lclavicle -5.00234e-15 -2.38753e-14 0
lhumerus -51.188 -13.4404 76.1168
lradius 57.2312 0 0
lwrist 15.025 0 0
lhand -27.1263 -6.88984 0
lfingers 7.12502 0 0
lthumb -0.542157 23.0613 0
rclavicle -5.00234e-15 -2.38753e-14 0
rhumerus 2.89798 39.6777 -81.3389
rradius 88.1833 0 0
rwrist 1.51097 0 0
rhand -21.4345 -21.9991 0
rfingers 7.12502 0 0
rthumb 4.95355 -771.847 0
750
root 3.78167 16.6559 15.1619 -163.859 5.03528 188.786
lfemur -37.2 10.3061 -18.909
ltibia 48.8745 0 0
lfoot -22.3931 5.51773 0
ltoes 13.9443 0 0
rfemur -24.66 -31.4171 14.4431
rtibia 97.2853 0 0
rfoot 19.0715 -3.41862 0
rtoes 27.0781 0 0
lowerback 2.95268 5.9272 -2.7223
upperback -1.03084 7.78212 -3.091
thorax -2.6104 3.93179 -2.04721
lowerneck -5.97886 -8.69663 -1.86165
upperneck -1.64426 -11.458 5.62161
head 0.955011 -5.61472 1.73561
lclavicle -1.00902e-14 -2.09828e-14 0
lhumerus -50.9488 -12.9409 78.9837
lradius 58.049 0 0
lwrist 14.4896 0 0
lhand -27.6264 -7.15325 0
lfingers 7.12502 0 0
lthumb -1.02507 22.7996 0
rclavicle -1.00902e-14 -2.09828e-14 0
rhumerus -0.0621519 42.545 -85.0228
rradius 87.923 0 0
rwrist 2.43141 0 0
rhand -20.6257 -21.1236 0
rfingers 7.12502 0 0
rthumb 5.73455 -770.961 0
